<svg aria-roledescription="flowchart-v2" role="graphics-document document" viewBox="0 0 354.75 793" height="793" class="flowchart" xmlns="http://www.w3.org/2000/svg" width="354.75" id="fig4"><style>#fig4{font-family:Noto Sans CJK SC,Microsoft YaHei,sans-serif;font-size:18px;fill:#17283d;}#fig4 .error-icon{fill:#fff3de;}#fig4 .error-text{fill:#000c21;stroke:#000c21;}#fig4 .edge-thickness-normal{stroke-width:1px;}#fig4 .edge-thickness-thick{stroke-width:3.5px;}#fig4 .edge-pattern-solid{stroke-dasharray:0;}#fig4 .edge-thickness-invisible{stroke-width:0;fill:none;}#fig4 .edge-pattern-dashed{stroke-dasharray:3;}#fig4 .edge-pattern-dotted{stroke-dasharray:2;}#fig4 .marker{fill:#537799;stroke:#537799;}#fig4 .marker.cross{stroke:#537799;}#fig4 svg{font-family:Noto Sans CJK SC,Microsoft YaHei,sans-serif;font-size:18px;}#fig4 p{margin:0;}#fig4 .label{font-family:Noto Sans CJK SC,Microsoft YaHei,sans-serif;color:#17283d;}#fig4 .cluster-label text{fill:#000c21;}#fig4 .cluster-label span{color:#000c21;}#fig4 .cluster-label span p{background-color:transparent;}#fig4 .label text,#fig4 span{fill:#17283d;color:#17283d;}#fig4 .node rect,#fig4 .node circle,#fig4 .node ellipse,#fig4 .node polygon,#fig4 .node path{fill:#edf4fc;stroke:#537799;stroke-width:1px;}#fig4 .rough-node .label text,#fig4 .node .label text,#fig4 .image-shape .label,#fig4 .icon-shape .label{text-anchor:middle;}#fig4 .node .katex path{fill:#000;stroke:#000;stroke-width:1px;}#fig4 .rough-node .label,#fig4 .node .label,#fig4 .image-shape .label,#fig4 .icon-shape .label{text-align:center;}#fig4 .node.clickable{cursor:pointer;}#fig4 .root .anchor path{fill:#537799!important;stroke-width:0;stroke:#537799;}#fig4 .arrowheadPath{fill:#0b0b0b;}#fig4 .edgePath .path{stroke:#537799;stroke-width:2.0px;}#fig4 .flowchart-link{stroke:#537799;fill:none;}#fig4 .edgeLabel{background-color:#f2f6ec;text-align:center;}#fig4 .edgeLabel p{background-color:#f2f6ec;}#fig4 .edgeLabel rect{opacity:0.5;background-color:#f2f6ec;fill:#f2f6ec;}#fig4 .labelBkg{background-color:rgba(242, 246, 236, 0.5);}#fig4 .cluster rect{fill:#fff3de;stroke:hsl(38.1818181818, 60%, 83.5294117647%);stroke-width:1px;}#fig4 .cluster text{fill:#000c21;}#fig4 .cluster span{color:#000c21;}#fig4 div.mermaidTooltip{position:absolute;text-align:center;max-width:200px;padding:2px;font-family:Noto Sans CJK SC,Microsoft YaHei,sans-serif;font-size:12px;background:#fff3de;border:1px solid hsl(38.1818181818, 60%, 83.5294117647%);border-radius:2px;pointer-events:none;z-index:100;}#fig4 .flowchartTitleText{text-anchor:middle;font-size:18px;fill:#17283d;}#fig4 rect.text{fill:none;stroke-width:0;}#fig4 .icon-shape,#fig4 .image-shape{background-color:#f2f6ec;text-align:center;}#fig4 .icon-shape p,#fig4 .image-shape p{background-color:#f2f6ec;padding:2px;}#fig4 .icon-shape rect,#fig4 .image-shape rect{opacity:0.5;background-color:#f2f6ec;fill:#f2f6ec;}#fig4 :root{--mermaid-font-family:Noto Sans CJK SC,Microsoft YaHei,sans-serif;}</style><g><marker orient="auto" markerHeight="8" markerWidth="8" markerUnits="userSpaceOnUse" refY="5" refX="5" viewBox="0 0 10 10" class="marker flowchart-v2" id="fig4_flowchart-v2-pointEnd"><path style="stroke-width: 1; stroke-dasharray: 1, 0;" class="arrowMarkerPath" d="M 0 0 L 10 5 L 0 10 z"></path></marker><marker orient="auto" markerHeight="8" markerWidth="8" markerUnits="userSpaceOnUse" refY="5" refX="4.5" viewBox="0 0 10 10" class="marker flowchart-v2" id="fig4_flowchart-v2-pointStart"><path style="stroke-width: 1; stroke-dasharray: 1, 0;" class="arrowMarkerPath" d="M 0 5 L 10 10 L 10 0 z"></path></marker><marker orient="auto" markerHeight="11" markerWidth="11" markerUnits="userSpaceOnUse" refY="5" refX="11" viewBox="0 0 10 10" class="marker flowchart-v2" id="fig4_flowchart-v2-circleEnd"><circle style="stroke-width: 1; stroke-dasharray: 1, 0;" class="arrowMarkerPath" r="5" cy="5" cx="5"></circle></marker><marker orient="auto" markerHeight="11" markerWidth="11" markerUnits="userSpaceOnUse" refY="5" refX="-1" viewBox="0 0 10 10" class="marker flowchart-v2" id="fig4_flowchart-v2-circleStart"><circle style="stroke-width: 1; stroke-dasharray: 1, 0;" class="arrowMarkerPath" r="5" cy="5" cx="5"></circle></marker><marker orient="auto" markerHeight="11" markerWidth="11" markerUnits="userSpaceOnUse" refY="5.2" refX="12" viewBox="0 0 11 11" class="marker cross flowchart-v2" id="fig4_flowchart-v2-crossEnd"><path style="stroke-width: 2; stroke-dasharray: 1, 0;" class="arrowMarkerPath" d="M 1,1 l 9,9 M 10,1 l -9,9"></path></marker><marker orient="auto" markerHeight="11" markerWidth="11" markerUnits="userSpaceOnUse" refY="5.2" refX="-1" viewBox="0 0 11 11" class="marker cross flowchart-v2" id="fig4_flowchart-v2-crossStart"><path style="stroke-width: 2; stroke-dasharray: 1, 0;" class="arrowMarkerPath" d="M 1,1 l 9,9 M 10,1 l -9,9"></path></marker><g class="root"><g class="clusters"></g><g class="edgePaths"><path marker-end="url(#fig4_flowchart-v2-pointEnd)" style="" class="edge-thickness-normal edge-pattern-solid edge-thickness-normal edge-pattern-solid flowchart-link" id="L_A_B_0" d="M165.471,92L160.892,95.75C156.314,99.5,147.157,107,142.578,113.833C138,120.667,138,126.833,138,129.917L138,133"></path><path marker-end="url(#fig4_flowchart-v2-pointEnd)" style="" class="edge-thickness-normal edge-pattern-solid edge-thickness-normal edge-pattern-solid flowchart-link" id="L_B_C_1" d="M138,194L138,197.75C138,201.5,138,209,138,215.833C138,222.667,138,228.833,138,231.917L138,235"></path><path marker-end="url(#fig4_flowchart-v2-pointEnd)" style="" class="edge-thickness-normal edge-pattern-solid edge-thickness-normal edge-pattern-solid flowchart-link" id="L_C_D_2" d="M138,296L138,299.75C138,303.5,138,311,138,317.833C138,324.667,138,330.833,138,333.917L138,337"></path><path marker-end="url(#fig4_flowchart-v2-pointEnd)" style="" class="edge-thickness-normal edge-pattern-solid edge-thickness-normal edge-pattern-solid flowchart-link" id="L_D_E_3" d="M138,425L138,428.75C138,432.5,138,440,138,446.833C138,453.667,138,459.833,138,462.917L138,466"></path><path marker-end="url(#fig4_flowchart-v2-pointEnd)" style="" class="edge-thickness-normal edge-pattern-solid edge-thickness-normal edge-pattern-solid flowchart-link" id="L_E_F_4" d="M138,554L138,557.75C138,561.5,138,569,138,575.833C138,582.667,138,588.833,138,591.917L138,595"></path><path marker-end="url(#fig4_flowchart-v2-pointEnd)" style="" class="edge-thickness-normal edge-pattern-solid edge-thickness-normal edge-pattern-solid flowchart-link" id="L_F_G_5" d="M138,656L138,659.75C138,663.5,138,671,142.063,678.078C146.125,685.155,154.251,691.81,158.314,695.138L162.376,698.465"></path><path marker-end="url(#fig4_flowchart-v2-pointEnd)" style="" class="edge-thickness-normal edge-pattern-solid edge-thickness-normal edge-pattern-solid flowchart-link" id="L_G_A_6" d="M268.029,701L272.608,697.25C277.186,693.5,286.343,686,290.922,673.75C295.5,661.5,295.5,644.5,295.5,627.5C295.5,610.5,295.5,593.5,295.5,574.25C295.5,555,295.5,533.5,295.5,512C295.5,490.5,295.5,469,295.5,447.5C295.5,426,295.5,404.5,295.5,383C295.5,361.5,295.5,340,295.5,320.75C295.5,301.5,295.5,284.5,295.5,267.5C295.5,250.5,295.5,233.5,295.5,216.5C295.5,199.5,295.5,182.5,295.5,165.5C295.5,148.5,295.5,131.5,291.437,119.672C287.375,107.845,279.249,101.19,275.186,97.862L271.124,94.535"></path></g><g class="edgeLabels"><g><rect style="stroke: none" class="background"></rect></g><g><rect style="stroke: none" class="background"></rect></g><g><rect style="stroke: none" class="background"></rect></g><g><rect style="stroke: none" class="background"></rect></g><g><rect style="stroke: none" class="background"></rect></g><g><rect style="stroke: none" class="background"></rect></g><g><rect style="stroke: none" class="background"></rect></g><g class="edgeLabel"><g transform="translate(0, 0)" class="label"><text y="-10.1"><tspan dy="1.1em" y="-0.1em" x="0" class="text-outer-tspan"></tspan></text></g></g><g class="edgeLabel"><g transform="translate(0, 0)" class="label"><text y="-10.1"><tspan dy="1.1em" y="-0.1em" x="0" class="text-outer-tspan"></tspan></text></g></g><g class="edgeLabel"><g transform="translate(0, 0)" class="label"><text y="-10.1"><tspan dy="1.1em" y="-0.1em" x="0" class="text-outer-tspan"></tspan></text></g></g><g class="edgeLabel"><g transform="translate(0, 0)" class="label"><text y="-10.1"><tspan dy="1.1em" y="-0.1em" x="0" class="text-outer-tspan"></tspan></text></g></g><g class="edgeLabel"><g transform="translate(0, 0)" class="label"><text y="-10.1"><tspan dy="1.1em" y="-0.1em" x="0" class="text-outer-tspan"></tspan></text></g></g><g class="edgeLabel"><g transform="translate(0, 0)" class="label"><text y="-10.1"><tspan dy="1.1em" y="-0.1em" x="0" class="text-outer-tspan"></tspan></text></g></g><g class="edgeLabel"><g transform="translate(0, 0)" class="label"><text y="-10.1"><tspan dy="1.1em" y="-0.1em" x="0" class="text-outer-tspan"></tspan></text></g></g></g><g class="nodes"><g transform="translate(216.75, 50)" id="flowchart-A-146" class="node default"><rect height="84" width="260" y="-42" x="-130" style="" class="basic label-container"></rect><g transform="translate(-100, -27)" style="" class="label"><rect></rect><foreignObject height="54" width="200"><div style="display: table; white-space: break-spaces; line-height: 1.5; max-width: 200px; text-align: center; width: 200px;" xmlns="http://www.w3.org/1999/xhtml"><span class="nodeLabel"><p>新观测、执行进度、剩余预算</p></span></div></foreignObject></g></g><g transform="translate(138, 165.5)" id="flowchart-B-147" class="node default"><rect height="57" width="240" y="-28.5" x="-120" style="" class="basic label-container"></rect><g transform="translate(-90, -13.5)" style="" class="label"><rect></rect><foreignObject height="27" width="180"><div style="display: table-cell; white-space: nowrap; line-height: 1.5; max-width: 200px; text-align: center;" xmlns="http://www.w3.org/1999/xhtml"><span class="nodeLabel"><p>硬约束与当前能力检查</p></span></div></foreignObject></g></g><g transform="translate(138, 267.5)" id="flowchart-C-149" class="node default"><rect height="57" width="258" y="-28.5" x="-129" style="" class="basic label-container"></rect><g transform="translate(-99, -13.5)" style="" class="label"><rect></rect><foreignObject height="27" width="198"><div style="display: table-cell; white-space: nowrap; line-height: 1.5; max-width: 200px; text-align: center;" xmlns="http://www.w3.org/1999/xhtml"><span class="nodeLabel"><p>生成当下合法的有限候选</p></span></div></foreignObject></g></g><g transform="translate(138, 383)" id="flowchart-D-151" class="node default"><rect height="84" width="260" y="-42" x="-130" style="" class="basic label-container"></rect><g transform="translate(-100, -27)" style="" class="label"><rect></rect><foreignObject height="54" width="200"><div style="display: table; white-space: break-spaces; line-height: 1.5; max-width: 200px; text-align: center; width: 200px;" xmlns="http://www.w3.org/1999/xhtml"><span class="nodeLabel"><p>比较校准风险、动作时效与实际成本</p></span></div></foreignObject></g></g><g transform="translate(138, 512)" id="flowchart-E-153" class="node default"><rect height="84" width="260" y="-42" x="-130" style="" class="basic label-container"></rect><g transform="translate(-100, -27)" style="" class="label"><rect></rect><foreignObject height="54" width="200"><div style="display: table; white-space: break-spaces; line-height: 1.5; max-width: 200px; text-align: center; width: 200px;" xmlns="http://www.w3.org/1999/xhtml"><span class="nodeLabel"><p>选择继续、重观测、恢复、求助或停止</p></span></div></foreignObject></g></g><g transform="translate(138, 627.5)" id="flowchart-F-155" class="node default"><rect height="57" width="258" y="-28.5" x="-129" style="" class="basic label-container"></rect><g transform="translate(-99, -13.5)" style="" class="label"><rect></rect><foreignObject height="27" width="198"><div style="display: table-cell; white-space: nowrap; line-height: 1.5; max-width: 200px; text-align: center;" xmlns="http://www.w3.org/1999/xhtml"><span class="nodeLabel"><p>提交时再次核对当前状态</p></span></div></foreignObject></g></g><g transform="translate(216.75, 743)" id="flowchart-G-157" class="node default"><rect height="84" width="260" y="-42" x="-130" style="" class="basic label-container"></rect><g transform="translate(-100, -27)" style="" class="label"><rect></rect><foreignObject height="54" width="200"><div style="display: table; white-space: break-spaces; line-height: 1.5; max-width: 200px; text-align: center; width: 200px;" xmlns="http://www.w3.org/1999/xhtml"><span class="nodeLabel"><p>执行并记录选择理由与成本</p></span></div></foreignObject></g></g></g></g></g></svg>