<svg xmlns="http://www.w3.org/2000/svg" width="1200" height="530" viewBox="0 0 1200 530"><defs><marker id="arrow" markerWidth="10" markerHeight="10" refX="8" refY="3" orient="auto"><path d="M0,0 L0,6 L9,3 z" fill="#303030"/></marker></defs><rect width="1200" height="530" fill="white"/><g font-family="Noto Sans CJK SC, sans-serif" fill="#111111"><text x="600" y="38" text-anchor="middle" font-size="30"><tspan x="600" dy="0">研究协议先冻结，再运行与验证</tspan></text><rect x="30" y="80" width="340" height="105" rx="4" fill="#f6f6f6" stroke="#666" stroke-width="2"/><text x="200" y="123.14" text-anchor="middle" font-size="27"><tspan x="200" dy="0">冻结任务与假设</tspan><tspan x="200" dy="36">阈值 / 终态 / 统计</tspan></text><line x1="370" y1="132" x2="422" y2="132" stroke="#303030" stroke-width="2.6"  marker-end="url(#arrow)"/><rect x="430" y="80" width="340" height="105" rx="4" fill="#f6f6f6" stroke="#666" stroke-width="2"/><text x="600" y="123.14" text-anchor="middle" font-size="27"><tspan x="600" dy="0">共同初值与参数</tspan><tspan x="600" dy="36">控制 / 时间 / 观测</tspan></text><line x1="770" y1="132" x2="822" y2="132" stroke="#303030" stroke-width="2.6"  marker-end="url(#arrow)"/><rect x="830" y="80" width="340" height="105" rx="4" fill="#f6f6f6" stroke="#666" stroke-width="2"/><text x="1000" y="123.14" text-anchor="middle" font-size="27"><tspan x="1000" dy="0">配对重复运行</tspan><tspan x="1000" dy="36">MuJoCo 与 Isaac</tspan></text><line x1="1000" y1="185" x2="1000" y2="263" stroke="#303030" stroke-width="2.6"  marker-end="url(#arrow)"/><rect x="30" y="280" width="340" height="105" rx="4" fill="#f6f6f6" stroke="#666" stroke-width="2"/><text x="200" y="323.14" text-anchor="middle" font-size="27"><tspan x="200" dy="0">效果量与适用范围</tspan><tspan x="200" dy="36">方法支持或反例</tspan></text><rect x="430" y="280" width="340" height="105" rx="4" fill="#f6f6f6" stroke="#666" stroke-width="2"/><text x="600" y="323.14" text-anchor="middle" font-size="27"><tspan x="600" dy="0">完整事件与原始轨迹</tspan><tspan x="600" dy="36">配对 / 溯源 / 终态</tspan></text><line x1="422" y1="332" x2="378" y2="332" stroke="#303030" stroke-width="2.6"  marker-end="url(#arrow)"/><rect x="830" y="280" width="340" height="105" rx="4" fill="#f6f6f6" stroke="#666" stroke-width="2"/><text x="1000" y="323.14" text-anchor="middle" font-size="27"><tspan x="1000" dy="0">资格与真实性验证</tspan><tspan x="1000" dy="36">参数实际生效</tspan></text><line x1="822" y1="332" x2="778" y2="332" stroke="#303030" stroke-width="2.6"  marker-end="url(#arrow)"/><rect x="680" y="435" width="460" height="65" rx="4" fill="#f6f6f6" stroke="#666" stroke-width="2"/><text x="910" y="475.5" text-anchor="middle" font-size="25"><tspan x="910" dy="0">未通过记录保留并注明原因</tspan></text><line x1="1000" y1="385" x2="1000" y2="428" stroke="#303030" stroke-width="2.6"  marker-end="url(#arrow)"/><text x="315" y="474" text-anchor="middle" font-size="27"><tspan x="315" dy="0">确认分析与探索分析分开</tspan></text></g></svg>